<?xml version="1.0" standalone="no"?>
<!DOCTYPE svg PUBLIC "-//W3C//DTD SVG 1.1//EN" "http://www.w3.org/Graphics/SVG/1.1/DTD/svg11.dtd" >
<svg xmlns="http://www.w3.org/2000/svg">
<metadata>
Created by FontForge 20120731 at Fri Jun 10 21:41:03 2016
 By admin
</metadata>
<defs>
<font id="iconfont" horiz-adv-x="1024" >
  <font-face 
    font-family="iconfont"
    font-weight="500"
    font-stretch="normal"
    units-per-em="1024"
    panose-1="2 0 6 3 0 0 0 0 0 0"
    ascent="896"
    descent="-128"
    x-height="792"
    bbox="0 -212 1024.17 896"
    underline-thickness="50"
    underline-position="-100"
    unicode-range="U+0078-E621"
  />
<missing-glyph horiz-adv-x="374" 
d="M34 0v682h272v-682h-272zM68 34h204v614h-204v-614z" />
    <glyph glyph-name=".notdef" horiz-adv-x="374" 
d="M34 0v682h272v-682h-272zM68 34h204v614h-204v-614z" />
    <glyph glyph-name=".null" horiz-adv-x="0" 
 />
    <glyph glyph-name="nonmarkingreturn" horiz-adv-x="341" 
 />
    <glyph glyph-name="x" unicode="x" horiz-adv-x="1001" 
d="M281 543q-27 -1 -53 -1h-83q-18 0 -36.5 -6t-32.5 -18.5t-23 -32t-9 -45.5v-76h912v41q0 16 -0.5 30t-0.5 18q0 13 -5 29t-17 29.5t-31.5 22.5t-49.5 9h-133v-97h-438v97zM955 310v-52q0 -23 0.5 -52t0.5 -58t-10.5 -47.5t-26 -30t-33 -16t-31.5 -4.5q-14 -1 -29.5 -0.5
t-29.5 0.5h-32l-45 128h-439l-44 -128h-29h-34q-20 0 -45 1q-25 0 -41 9.5t-25.5 23t-13.5 29.5t-4 30v167h911zM163 247q-12 0 -21 -8.5t-9 -21.5t9 -21.5t21 -8.5q13 0 22 8.5t9 21.5t-9 21.5t-22 8.5zM316 123q-8 -26 -14 -48q-5 -19 -10.5 -37t-7.5 -25t-3 -15t1 -14.5
t9.5 -10.5t21.5 -4h37h67h81h80h64h36q23 0 34 12t2 38q-5 13 -9.5 30.5t-9.5 34.5q-5 19 -11 39h-368zM336 498v228q0 11 2.5 23t10 21.5t20.5 15.5t34 6h188q31 0 51.5 -14.5t20.5 -52.5v-227h-327z" />
    <glyph glyph-name="uniE600" unicode="&#xe600;" 
d="M763 -42q-43 0 -81.5 16.5t-67 45t-45 67t-16.5 81.5t16.5 81.5t45 66.5t67 44.5t81.5 16.5t81.5 -16.5t66.5 -44.5t44.5 -66.5t16.5 -81.5t-16.5 -81.5t-44.5 -67t-66.5 -45t-81.5 -16.5zM866 202h-75v70q0 15 -9.5 25t-24 10t-22.5 -10t-8 -25v-70h-67q-14 0 -24 -10.5
t-10 -24.5t10 -21.5t24 -7.5h67v-72q0 -15 8 -25t22.5 -10t24 10t9.5 25v72h75v-2q15 0 25 8.5t10 22.5t-10 24.5t-25 10.5zM613 457q-4 -17 -8 -30q-4 -11 -10 -23t-13 -18q-10 -7 -13.5 -15.5t-6 -17t-5.5 -17.5t-10 -19q-24 -30 -35.5 -59t-16.5 -55.5t-2.5 -52.5
t8.5 -51q4 -18 12 -38t24 -41t40.5 -41t61.5 -38q-25 -6 -57 -10q-28 -3 -68.5 -5.5t-92.5 -2.5q-27 0 -62 2t-72.5 5t-74 7.5t-66.5 9t-51 9.5t-26 9q-10 8 -15 45.5t3 98.5q5 33 27 51t52 28.5t62 19t57 23.5q19 13 29.5 23.5t14.5 22t4 23.5t-1 27q-2 21 -15 33.5
t-27 24.5q-8 6 -14 18.5t-10 23.5q-6 13 -9 30q-7 2 -13 6q-5 4 -11 12t-12 25q-5 15 -3.5 28.5t6.5 22.5q4 11 11 19q0 35 4 70q4 30 12.5 63.5t28.5 60.5q18 26 39 42t43.5 25.5t45 13t43.5 3.5q26 0 51 -6t46 -16.5t37 -23t27 -26.5q23 -30 34 -65.5t16 -67.5
q5 -37 4 -74q6 -5 10 -12q4 -6 6 -16.5t0 -25.5q-2 -19 -8 -30.5t-13 -17.5q-8 -7 -18 -10z" />
    <glyph glyph-name="uniE601" unicode="&#xe601;" horiz-adv-x="1000" 
d="M405 -57h219v110h-219v-110zM897 709h-765q-23 0 -39 -16t-16 -39v-492q0 -22 16 -38.5t39 -16.5h765q23 0 39 16.5t16 38.5v492q0 23 -16 39t-39 16zM569 162h-109v55h109v-55zM897 272h-765v382h765v-382z" />
    <glyph glyph-name="uniE602" unicode="&#xe602;" horiz-adv-x="1000" 
d="M751 670q21 -20 34 -33t19.5 -22.5t8.5 -16t2 -10.5v-13h-119q-8 0 -14 6t-10 14t-6 16.5t-2 12.5v100h3q6 0 13 -2t15.5 -8t22 -16t33.5 -28zM614 624q0 -16 5 -33.5t15 -32t26 -24t38 -9.5h117v-451q0 -24 -9.5 -42t-24.5 -31t-33.5 -20t-35.5 -7h-394q-15 0 -33 8.5
t-33.5 23t-26 33t-10.5 38.5v543q0 17 7.5 35t21 33.5t30 25.5t35.5 10h305v-100zM664 125q21 0 35.5 14.5t14.5 35.5t-14.5 35.5t-35.5 14.5h-299q-21 0 -35.5 -14.5t-14.5 -35.5t14.5 -35.5t35.5 -14.5h299zM714 374q0 21 -14.5 36t-35.5 15h-299q-21 0 -35.5 -15
t-14.5 -36t14.5 -35t35.5 -14h299q21 0 35.5 14t14.5 35zM714 374z" />
    <glyph glyph-name="uniE603" unicode="&#xe603;" horiz-adv-x="1000" 
d="M920 78q-16 0 -19 16q-2 7 -6 19t-21.5 43.5t-41.5 57.5q-109 114 -319 119v-162q0 -12 -11 -17.5t-21 1.5l-383 277q-9 6 -9 16.5t9 16.5l383 279q10 7 21 1.5t11 -17.5v-173q58 -2 117 -18q120 -31 196 -109q118 -119 114 -330q0 -8 -5 -13.5t-13 -6.5h-2zM493 374
q133 0 233 -42q81 -33 136 -93q17 -18 31 -38q-20 122 -95 199q-38 38 -86.5 64t-94.5 35.5t-72 13t-47 3.5q-3 0 -5 -1q-8 0 -14 6t-6 14v153l-330 -239l330 -239v144q0 8 5.5 14t14.5 6z" />
    <glyph glyph-name="uniE604" unicode="&#xe604;" 
d="M727 631h-430l-257 -390v-195q0 -32 23 -55t55 -23h780q32 0 55 23t23 55v195zM760 240l-80 -156l-335 1l-86 156l-159 1l221 350h382l219 -350zM352 124h312v39h-312v-39zM345 553l-172 -273h680l-176 273h-332zM313 202h390v39h-390v-39z" />
    <glyph glyph-name="uniE605" unicode="&#xe605;" 
d="M847 245v-224q0 -23 -16.5 -39.5t-39.5 -16.5h-559q-23 0 -39.5 16.5t-16.5 39.5v559q0 23 16.5 39.5t39.5 16.5h335v112h-335q-70 0 -119 -49t-49 -119v-559q0 -70 49 -119t119 -49h559q70 0 119 49t49 119v224h-112zM329 238l-40 -162l162 40zM937 602l-122 122
l-40 -41l121 -121zM748 629l-14 14l-364 -365l121 -121l338 338l7 -7l29 29l-115 114z" />
    <glyph glyph-name="uniE606" unicode="&#xe606;" 
d="M409 -47q50 91 198 232.5t280 230.5l68 41q41 22 68 28q-19 42 -23.5 87.5t0.5 78.5t13 82.5t11 81.5q-89 -45 -190 -131l-71 -64q-91 -87 -183.5 -196t-139.5 -173t-47 -66l-120 232l-273 -132q86 -31 203 -126.5t206 -205.5z" />
    <glyph glyph-name="uniE607" unicode="&#xe607;" 
d="M924 -107l-33 -33q-10 -10 -24 -10t-23 10l-135 134q-50 -29 -110 -29q-88 0 -155 65t-69 155h-170v56h175q7 28 23 56h-198v57h242q0 -1 -1 -2q63 58 147 58q90 0 157.5 -67.5t67.5 -158.5q0 -62 -32 -114l134 -134q24 -24 4 -43zM592.5 342q-62.5 0 -107 -44.5
t-44.5 -107t48 -110.5t110.5 -48t107 44.5t44.5 107.5t-48 110.5t-110.5 47.5zM205 579h395v-56h-395v56zM600 453q-53 -15 -93 -43h-302v56h395v-13zM656 463v172h-507v-563h238q18 -63 60 -113h-298q-24 0 -40.5 16.5t-16.5 40.5v676q0 23 16.5 39.5t40.5 16.5h507
q23 0 39.5 -16.5t16.5 -39.5v-229q-2 1 -12 2t-16 1t-16 -1t-12 -2z" />
    <glyph glyph-name="uniE608" unicode="&#xe608;" 
d="M693 549q15 0 35 -2q-23 109 -127.5 181.5t-238.5 72.5q-98 0 -181 -40.5t-132 -111.5t-49 -156q0 -143 145 -245l-36 -109l127 64q6 -2 25 -5.5t27 -5t22.5 -4t26.5 -3t25 -0.5q16 0 34 1q-11 38 -11 76q0 119 89.5 203t218.5 84zM498 647q21 0 33.5 -12.5t12.5 -33
t-12.5 -33t-33.5 -12.5t-37.5 13t-16.5 32.5t16.5 32.5t37.5 13zM245 556q-22 0 -38.5 13t-16.5 32.5t16.5 32.5t38.5 13q20 0 32.5 -12.5t12.5 -33t-12.5 -33t-32.5 -12.5zM1024 266q0 71 -43 132t-113.5 96t-151.5 35q-129 0 -218.5 -77t-89.5 -186t89.5 -186t218.5 -77
q37 0 109 18l99 -54l-27 90q127 96 127 209zM616 312q-13 0 -24.5 11t-11.5 24.5t11.5 25t24.5 11.5q20 0 33 -11t13 -25.5t-13 -25t-33 -10.5zM815 312q-13 0 -24.5 11t-11.5 24.5t11.5 25t24.5 11.5q20 0 33 -11t13 -25.5t-13 -25t-33 -10.5z" />
    <glyph glyph-name="uniE609" unicode="&#xe609;" 
d="M880 87v9q0 73 -51.5 124.5t-124.5 51.5h-128v92q57 20 92.5 69t35.5 111q0 80 -56 136t-136 56t-136 -56t-56 -136q0 -62 35.5 -111t92.5 -69v-92h-128q-73 0 -124.5 -51.5t-51.5 -124.5v-9q-36 -15 -58 -47t-22 -72q0 -53 37.5 -90.5t90.5 -37.5t90.5 37.5t37.5 90.5
q0 40 -22 72t-58 47v9q0 33 23.5 56.5t56.5 23.5h128v-98q-29 -17 -46.5 -46t-17.5 -64q0 -53 37.5 -90.5t90.5 -37.5t90.5 37.5t37.5 90.5q0 35 -17.5 64t-46.5 46v98h128q33 0 56.5 -23.5t23.5 -56.5v-9q-36 -15 -58 -47t-22 -72q0 -53 37.5 -90.5t90.5 -37.5t90.5 37.5
t37.5 90.5q0 40 -22 72t-58 47z" />
    <glyph glyph-name="uniE60A" unicode="&#xe60a;" 
d="M490.5 -212q-104.5 0 -194 49.5t-141 135t-51.5 185.5q0 103 55 191l304 448q10 15 27 15t27 -15l304 -447q56 -89 56 -192q0 -100 -51.5 -185.5t-141 -135t-194 -49.5zM447 -93h87v90h-87v-90zM431 449l30 -391h59l30 391h-119z" />
    <glyph glyph-name="uniE60B" unicode="&#xe60b;" 
d="M972 625q-14 -50 -32 -64q-69 -56 -140 -127.5t-152.5 -160t-131.5 -137.5l-11 -11q-17 -27 -39.5 -47t-51 -34t-52.5 -22.5t-59 -19.5t-56 -19q-14 -5 -31.5 14t-12.5 35q38 135 51 177q3 9 20 26q47 45 128.5 123t149.5 143t127 123q14 14 28.5 29.5t34 39t26.5 31.5
q30 35 68 37t70 -30q4 -4 15.5 -14.5t17 -16t13 -15.5t12 -20t5.5 -22q1 -3 2 -8.5t1 -6.5q1 -1 0 -1.5t0 -1.5zM726 582q-62 -63 -192.5 -193t-196.5 -197q10 -10 33 -33.5t35 -34.5q270 265 393 385q-12 13 -36 37zM757 638q18 -17 49 -47t46 -44q18 25 19 27
q18 18 24.5 25t12.5 18t6 14.5t-6.5 15t-13.5 18t-26 23.5q0 1 -1.5 2t-1.5 2q-25 22 -50 0zM273 54q23 9 74 30q-6 7 -46 55q-4 -11 -13 -39t-15 -46zM462 -161h-261q-79 0 -122 52q-27 32 -27 86v519q1 70 41 109.5t110 39.5q31 1 141.5 0.5t141.5 -0.5q12 0 19.5 -1
t14.5 -7.5t8 -18.5q3 -29 -44 -29h-137h-137q-49 0 -76 -27t-27 -76v-501q0 -39 24.5 -64t62.5 -25q229 -1 536 0q31 0 50 21t20 55v192v151q0 22 2 25q18 25 29 23q3 0 5.5 -2t5 -5.5t4.5 -6t5 -7.5t5 -7v-15v-340q0 -72 -34.5 -106.5t-106.5 -34.5h-253zM462 -161z" />
    <glyph glyph-name="uniE60C" unicode="&#xe60c;" 
d="M473 739q-18 0 -28 -5.5t-15 -6.5q-37 -5 -47 -7q-23 -5 -39.5 -25t-23 -39t-7.5 -34q-5 -49 -2 -127q3 -10 0 -15t-7 -6l-4 -1q-14 1 -18 -22t-2 -46l3 -23q1 -4 1.5 -11t1.5 -9.5t3.5 -8t6.5 -8.5t11.5 -7t18.5 -9q9 -27 28 -49.5t33 -31.5l14 -10q3 -39 4 -66
q-1 0 -1.5 -6.5t-5 -18.5t-15 -24.5t-37.5 -24t-65 -17.5q-33 -5 -60.5 -12.5t-44.5 -14t-33 -17.5t-22 -16t-17 -17l-14 -13q-24 -23 -24 -140h890q0 13 -2 32.5t-10 58t-19 49.5q-1 0 -13.5 13t-18 17.5t-22.5 16t-33.5 17.5t-44.5 13.5t-61 12.5q-28 4 -49.5 11.5
t-33.5 16t-20 17.5t-10 18t-2.5 15.5t0 11.5t0.5 6l5 56q5 5 13 12.5t26 33t27 52.5q6 4 17 10.5t14.5 9t9 7t7.5 9.5t4 12v5q0 4 0.5 13.5t0.5 18t-1.5 19t-4 18.5t-8 13t-12.5 5h-4q-2 0 -5 5t-1 14q3 20 3 55.5t-2 57.5q-1 2 -1 17.5t-2 26t-6 24t-13.5 22.5t-23.5 11
q-19 4 -34 1.5t-21 -2.5q-6 1 -28 23.5t-40 22.5z" />
    <glyph glyph-name="uniE60D" unicode="&#xe60d;" 
d="M832 815h-671q-28 0 -48 -20t-20 -48v-759q0 -28 20 -48t48 -20h671q28 0 48 20t20 48v759q0 28 -20 48t-48 20zM554 77h-359q-8 0 -13.5 5.5t-5.5 13.5t5.5 13.5t13.5 5.5h359q8 0 13.5 -5.5t5.5 -13.5t-5.5 -13.5t-13.5 -5.5zM554 265h-359q-8 0 -13.5 5.5t-5.5 13.5
t5.5 13.5t13.5 5.5h359q8 0 13.5 -5.5t5.5 -13.5t-5.5 -13.5t-13.5 -5.5zM554 453h-359q-8 0 -13.5 5.5t-5.5 13.5t5.5 13.5t13.5 5.5h359q8 0 13.5 -5.5t5.5 -13.5t-5.5 -13.5t-13.5 -5.5zM554 641h-359q-8 0 -13.5 5.5t-5.5 13t5.5 13t13.5 5.5h359q8 0 13.5 -5.5t5.5 -13
t-5.5 -13t-13.5 -5.5zM766 190v-1q0 -1 -1 -2l-46 -102q-2 -4 -6 -6.5t-9 -2.5q-10 0 -13 10l-41 102l116 2v0zM767 221l-120 -3l-2 314l127 3zM773 566l-127 -3l1 31q1 20 19 32q9 5 20 7q26 3 54 0q2 0 4 -1q29 -12 29 -35q1 -9 0 -31zM773 566z" />
    <glyph glyph-name="uniE60E" unicode="&#xe60e;" 
d="M958 -90q0 -18 -12.5 -30t-29.5 -12h-808q-17 0 -29.5 12t-12.5 30v0q0 6 1 16.5t7 40t16.5 54.5t33 53t54.5 44q35 17 61 20.5t68 21.5q39 16 65.5 28t34.5 16l7 4l1 83q-4 3 -9.5 9t-17 32.5t-15.5 60.5q-14 -4 -20.5 10t-7.5 33q-1 2 -2 14t-1.5 20t0.5 18t5 14.5
t10 3.5q-9 68 -6 90q5 51 49.5 91.5t112.5 43.5q77 -3 116.5 -41.5t44.5 -93.5q2 -21 -7 -90q7 1 11 -3.5t4.5 -14.5t0.5 -18t-1.5 -20t-1.5 -14q-1 -19 -8 -33t-20 -10q-5 -34 -15.5 -59.5t-18.5 -34.5l-9 -8l1 -82q21 -12 107 -47q42 -18 68 -22.5t62 -21.5q31 -16 54 -44
t33.5 -53t16.5 -54.5t6.5 -40t0.5 -16.5v0zM958 -90z" />
    <glyph glyph-name="uniE60F" unicode="&#xe60f;" 
d="M63 -119h-39q-9 0 -14.5 6t-5.5 14v39q-4 58 38 111q26 33 65 55q45 25 105 35l1 1q60 8 95 23q0 7 -1 16q-2 23 -11.5 44.5t-18 33t-25.5 29.5q-17 20 -25 31q-32 47 -35 102v1q0 27 14 47q-9 65 1 125q1 26 14 51.5t22.5 36t18.5 19.5q-2 11 1 22q9 51 76 55h9h3
q8 1 14 -4.5t6.5 -14t-5 -14.5t-13.5 -6h-3q-5 -1 -9 -1q-36 -2 -40 -22q-1 -8 1 -16q4 -12 -4 -20q-4 -4 -9 -8q-5 -5 -12 -12.5t-18.5 -28t-12.5 -40.5v-2q-10 -61 1 -123q2 -9 -5 -17q-10 -10 -10 -27q2 -44 28 -81q6 -8 22 -26q18 -21 28 -34.5t22 -40t15 -55.5
q1 -22 1 -33q-1 -8 -8 -14q-12 -10 -48 -20t-74 -16q-99 -17 -145 -75q-33 -42 -30 -85v-2v-19h20q8 0 14 -6t6 -14t-6 -14t-14 -6zM773 -176q-6 0 -11 3q-36 24 -96 26h-22l-36 -1h-462q-8 0 -13.5 6t-5.5 14v22q-2 39 21 79q21 36 59 60q46 30 114 42h1q31 4 70 14
q27 7 44 15t20 11t3 5l2 4q2 10 -1 39q-2 32 -15 61.5t-24 44t-31 36.5q-18 20 -25 30q-29 42 -31 91v1q0 19 18 35v1q0 1 -1 6v3q-13 69 -1 138q1 22 14 46t20.5 32t13.5 14q12 10 17 17q0 1 1 1q-1 1 -1 2q-7 15 -4 26q3 18 24 24q8 2 21 3h1q45 2 71 0q49 -4 91.5 -13.5
t67 -19.5t44.5 -22.5t25.5 -17.5t8.5 -9h1q21 -25 31 -62q3 -11 4 -20q7 -40 3 -97q-1 -20 -4 -45q-1 -4 0 -5t2 -3q10 -10 13 -19q2 -7 2 -15v-1q-3 -49 -32 -91q-6 -10 -24 -30q-20 -22 -31 -36.5t-24 -44t-16 -61.5q-2 -29 0 -39q1 -2 1 -4q1 -2 4 -5t20 -11t44 -15
q39 -10 69 -14h1q70 -13 116 -43q38 -25 59 -60q22 -39 20 -78v-22q0 -8 -6 -14t-14 -6h-126q-1 0 -3 1h-29q-8 0 -13.5 5.5t-5.5 13.5t5.5 14t13.5 6h52h3h83v3v2q2 27 -16 57q-16 27 -46 46q-39 25 -99 36q-38 6 -75 15q-82 22 -94 55q-7 14 -3 61q3 37 18 72t27.5 51.5
t34.5 40.5q16 19 22 26q21 31 24 70v3q0 1 -3 4l-5 5q-12 14 -8 36q3 23 4 41q3 53 -3 88v1q-1 7 -4 16q-7 28 -22 46q-15 15 -46 30q-66 31 -165 39q-24 1 -66 -1h-1h-6q5 -13 2 -25q-2 -5 -6 -12q-8 -12 -24 -26q-34 -31 -35 -65v-3q-11 -62 1 -125v-1v-1q6 -28 -11 -43
v-1q-5 -4 -6 -5v-1q3 -39 25 -70q5 -7 21 -26q22 -24 34.5 -40.5t27.5 -51.5t19 -72q4 -47 -3 -61q-13 -33 -94 -55q-38 -9 -75 -15q-61 -10 -100 -36q-30 -19 -46 -47q-18 -31 -16 -56v-2v-3h442h35h1h22q72 -2 118 -32q6 -4 8 -12t-3 -15q-6 -9 -16 -9zM684 130q1 0 2 -1
q-1 1 -2 1zM684 130z" />
    <glyph glyph-name="uniE610" unicode="&#xe610;" 
d="M816.5 438q-11.5 0 -19.5 -8t-8 -20v-484q0 -34 -24.5 -58.5t-58.5 -24.5h-332q-35 0 -59 24.5t-24 58.5v484q0 12 -8 20t-19.5 8t-20 -8t-8.5 -20v-484q0 -57 41 -97.5t98 -40.5h332q57 0 97.5 40.5t40.5 97.5v484q0 12 -8 20t-19.5 8zM429 -74v387q0 12 -8 20t-19.5 8
t-19.5 -8t-8 -20v-387q0 -11 8 -19t19.5 -8t19.5 8t8 19zM567 -74v387q0 12 -8 20t-19.5 8t-19.5 -8t-8 -20v-387q0 -11 8 -19t19.5 -8t19.5 8t8 19zM706 -74v387q0 12 -8.5 20t-19.5 8t-19.5 -8t-8.5 -20v-387q0 -11 8.5 -19t19.5 -8t19.5 8t8.5 19zM895 661l-13 54
q-9 33 -38.5 50.5t-62.5 9.5l-215 -54l-7 28q-8 33 -37.5 51t-62.5 9.5t-51 -38t-10 -62.5l8 -28l-215 -54q-33 -8 -51 -37.5t-10 -62.5l14 -54q3 -11 12.5 -17t21.5 -3l697 174q11 3 17 13t3 21zM472 756q11 3 21 -3t13 -17l7 -28l-54 -14l-7 28q-3 11 3 21t17 13zM191 513
l-7 27q-3 11 3 21t17 13l590 147q12 3 21.5 -3t12.5 -17l7 -27z" />
    <glyph glyph-name="uniE611" unicode="&#xe611;" 
d="M248 651h116q9 0 15 6t6 15v20q0 9 -6 15t-15 6h-116q-9 0 -15 -6t-6 -15v-20q0 -9 6 -15t15 -6zM512 440q-44 0 -75.5 -31.5t-31.5 -76t31.5 -76t75.5 -31.5t75.5 31.5t31.5 76t-31.5 76t-75.5 31.5zM907 637h-52v51q0 21 -15 36t-36 15h-238q-22 0 -37 -15t-15 -36v-51
h-397q-34 0 -58 -27t-24 -65v-425q0 -38 24 -64.5t58 -26.5h790q34 0 58 26.5t24 64.5v425q0 38 -24 65t-58 27zM512 143q-78 0 -133.5 55.5t-55.5 134t55.5 134t133.5 55.5t133.5 -55.5t55.5 -134t-55.5 -134t-133.5 -55.5zM761.5 472q-15.5 0 -26.5 11t-11 26.5t11 26.5
t26.5 11t26.5 -11t11 -26.5t-11 -26.5t-26.5 -11z" />
    <glyph glyph-name="uniE612" unicode="&#xe612;" 
d="M513 471q-82 0 -140 -58t-58 -140t58 -139.5t140 -57.5t140 57.5t58 139.5t-58 140t-140 58zM948 590h-236v45q0 24 -17 41t-41 17h-281q-24 0 -41 -17t-17 -41v-45h-237q-24 0 -41 -13.5t-17 -31.5v-593q0 -19 17 -32t41 -13h870q24 0 41 13t17 32v593q0 18 -17 31.5
t-41 13.5zM513.5 4q-111.5 0 -190.5 79t-79 190.5t79 190.5t190.5 79t190 -79t78.5 -190.5t-78.5 -190.5t-190 -79z" />
    <glyph glyph-name="uniE613" unicode="&#xe613;" 
d="M293.5 400q-27.5 0 -47 -19.5t-19.5 -47t19.5 -47t47 -19.5t47 19.5t19.5 47t-19.5 47t-47 19.5zM516.5 400q-27.5 0 -47 -19.5t-19.5 -47t19.5 -47t47 -19.5t47 19.5t19.5 47t-19.5 47t-47 19.5zM516 734q-133 0 -245.5 -53.5t-178 -146t-65.5 -200.5q0 -80 36.5 -152
t101.5 -127l-49 -211l263 105q68 -16 137 -16q133 0 246 53.5t178.5 146t65.5 201t-65.5 201t-178.5 146t-246 53.5zM516 -23q-64 0 -127 15q-5 2 -10 2q-9 0 -17 -4l-183 -73l29 127q7 27 -14 45q-60 50 -91.5 113t-31.5 132q0 96 59.5 178t162.5 130t223.5 48t223 -48
t162.5 -130t60 -178.5t-60 -178.5t-162.5 -130t-223.5 -48zM739 400q-28 0 -47.5 -19.5t-19.5 -47t19.5 -47t47.5 -19.5t47.5 19.5t19.5 47t-19.5 47t-47.5 19.5z" />
    <glyph glyph-name="uniE614" unicode="&#xe614;" 
d="M727 207q57 -38 97 -78q41 -43 41 -74q-1 -32 -37 -65q-8 -9 -21 -18.5t-49.5 -23.5t-74.5 -14q-36 0 -72 11q-38 11 -77 35q-75 44 -135.5 104t-115.5 144q-44 66 -73 134.5t-40 122t-14 82.5t-3 49q0 40 13 75.5t29.5 57t38.5 39.5t33 24t20 9q27 13 50 13q11 0 20 -3
q29 -8 44 -41q26 -56 43 -142q3 -11 2.5 -21t-2 -17.5t-6 -14.5t-8.5 -11t-11.5 -9t-12 -7t-12.5 -7h-1q-54 -23 -64 -27q-7 -3 -10 -10t-1 -14q33 -100 96 -197q62 -95 139 -167q6 -5 13 -5h2q8 1 13 8q18 22 34 38q38 35 70 35q9 0 17.5 -2.5t24.5 -12.5v0zM579 492
q-17 3 -26 17t-6 31q3 15 14.5 24t26.5 8h7q71 -15 110.5 -75.5t25.5 -131.5q-3 -16 -18 -26q-10 -7 -23 -6h-7q-17 4 -26 18t-6 30q8 38 -13.5 70.5t-58.5 40.5v0zM621 619q-17 4 -26 18t-6 30q3 15 15 24t27 9q3 0 6 -1q119 -25 185.5 -126t42.5 -219q-4 -17 -18 -26
q-11 -7 -24 -7q-3 0 -6 1q-17 3 -26 17t-6 31q18 85 -30.5 158.5t-133.5 90.5zM598 612z" />
    <glyph glyph-name="uniE615" unicode="&#xe615;" 
d="M514 896q-29 0 -59 -8q-117 -29 -155 -156q-25 -84 -5 -183q11 -55 32.5 -93.5t62.5 -88.5q5 -6 6 -8q13 -33 -9.5 -75t-56.5 -54q-58 -20 -105 -41q-97 -41 -154 -86q-27 -21 -43.5 -40t-22.5 -42q-4 -14 -5 -56q0 -38 29 -63q6 -5 18 -12l20 -13q8 -5 9 -5h160h275h288
h147q3 3 8.5 7t19.5 16.5t24 25t18 29.5t7 31v9q1 31 -27 67q-30 39 -93 78q-90 54 -216 93q-69 21 -70 56q0 42 20 68q57 71 83 175q23 90 8 175q-18 95 -82 146q-60 48 -132 48v0zM514 896zM832 717h179q5 0 9 -4t4 -9v-26q0 -5 -4 -8.5t-9 -3.5h-179q-6 0 -9.5 3.5
t-3.5 8.5v26q0 5 3.5 9t9.5 4zM832 563h179q5 0 9 -3.5t4 -9.5v-25q0 -6 -4 -9.5t-9 -3.5h-179q-6 0 -9.5 3.5t-3.5 9.5v25q0 6 3.5 9.5t9.5 3.5zM781 410h230q5 0 9 -4t4 -9v-26q0 -5 -4 -9t-9 -4h-230q-6 0 -9.5 4t-3.5 9v26q0 5 3.5 9t9.5 4zM909 256h102q5 0 9 -3.5
t4 -9.5v-25q0 -6 -4 -9.5t-9 -3.5h-102q-6 0 -9.5 3.5t-3.5 9.5v25q0 6 3.5 9.5t9.5 3.5z" />
    <glyph glyph-name="uniE616" unicode="&#xe616;" 
d="M130 557l313 -312v189q22 0 36.5 -0.5t43 -3t49.5 -7t49.5 -13.5t48.5 -21.5t42 -32.5t35.5 -45t22.5 -60t9 -77q0 -100 -61 -176.5t-154 -96.5q149 21 249 138t100 275q0 63 -14.5 117t-37 92t-56.5 68.5t-66.5 49.5t-73.5 33t-71.5 21t-66 10.5t-51.5 4t-33 0.5v161z
" />
    <glyph glyph-name="uniE617" unicode="&#xe617;" 
d="M743 610v-117l135 205l-135 198v-111q-5 0 -14.5 1t-39 -0.5t-58 -5.5t-68.5 -16.5t-75.5 -31t-73 -51.5t-66 -75.5t-51 -105.5t-30.5 -139h29q35 67 78.5 117t85 76.5t84 42.5t77.5 19t63 2.5t44 -4.5zM774 234q-3 10 -15 17t-25 7h-659q-13 0 -20.5 -7t-4.5 -17
l110 -338q4 -10 15.5 -17t25.5 -7h658q14 0 21.5 7t3.5 17zM838 469h-173q-45 2 -70 -108h-299q-13 -23 -23 -47q-3 -6 -4 6q-4 24 -2 41h-70q-13 0 -23 -9.5t-10 -23.5v-37h570q22 0 42 -11q22 -14 30 -36l82 -254v405q0 6 -1.5 13.5t-6 23.5t-15.5 26.5t-27 10.5z" />
    <glyph glyph-name="uniE618" unicode="&#xe618;" 
d="M918 650q-39 39 -101 39h-23q-6 0 -22 9q-8 6 -15 19l-27 57q-7 14 -28 28l-2 1q-13 8 -32 8h-6h-5h-290h-6h-7q-18 0 -30 -8q-22 -13 -30 -31l-27 -54q-8 -15 -15 -20q-15 -9 -22 -9h-23q-62 0 -101 -39q-41 -43 -41 -100v-437q0 -65 41 -108q47 -48 101 -48h610
q54 0 101 48q41 43 41 108v437q0 57 -41 100zM919 113q0 -49 -30 -80q-35 -35 -72 -35h-610q-37 0 -72 35q-30 31 -30 80v437q0 40 30 71q27 27 72 27h23q19 0 43 15q18 12 30 37l27 54v1q4 7 16 14q2 1 8 1h6h7h290h6h5q8 0 10 -1l3 -2q11 -7 12 -11l28 -57q11 -23 30 -35
q25 -16 43 -16h23q45 0 72 -27q30 -31 30 -71v-437zM512 587q-101 0 -172.5 -71.5t-71.5 -172.5t71.5 -172.5t172.5 -71.5t172.5 71.5t71.5 172.5t-71.5 172.5t-172.5 71.5zM512 140q-84 0 -143.5 59.5t-59.5 143.5t59.5 143.5t143.5 59.5t143.5 -59.5t59.5 -143.5
t-59.5 -143.5t-143.5 -59.5zM817 567q0 -17 -12 -29t-29 -12t-28.5 12t-11.5 29t11.5 28.5t28.5 11.5t29 -11.5t12 -28.5z" />
    <glyph glyph-name="uniE619" unicode="&#xe619;" 
d="M921 793.5q-24 23.5 -72 32t-100 4t-100.5 -13t-79.5 -16.5l-32 -9l-3 -3l-464 -465q-6 -5 -6 -13t6 -13l354 -355q5 -5 13 -5t14 5l464 465l3 3q4 12 9.5 33t16 77t14 103t-4.5 97t-32 73.5zM802.5 513q-33.5 -34 -81 -34t-81.5 34t-34 81.5t34 81t81.5 33.5t81 -33.5
t33.5 -81t-33.5 -81.5z" />
    <glyph glyph-name="uniE61A" unicode="&#xe61a;" 
d="M512 896q-104 0 -199 -40.5t-163.5 -109t-109 -163.5t-40.5 -199t40.5 -199t109 -163.5t163.5 -109t199 -40.5t199 40.5t163.5 109t109 163.5t40.5 199t-40.5 199t-109 163.5t-163.5 109t-199 40.5zM840 384q0 -26 -18 -43.5t-43 -17.5h-206v-206q0 -25 -17.5 -43
t-43.5 -18q-25 0 -43 18t-18 43v206h-206q-25 0 -43 17.5t-18 43.5t18 43.5t43 17.5h206v206q0 25 18 43t43 18q26 0 43.5 -18t17.5 -43v-206h206q25 0 43 -17.5t18 -43.5v0z" />
    <glyph glyph-name="uniE61B" unicode="&#xe61b;" 
d="M792 34h-560q-38 0 -65.5 27t-27.5 66v373q0 39 27.5 66t65.5 27h47h187v47q0 38 27 65.5t66 27.5h93q39 0 66 -27.5t27 -65.5v-47h47q39 0 66 -27t27 -66v-373q0 -39 -27 -66t-66 -27zM605.5 640q-19.5 0 -33 -13.5t-13.5 -33.5h93q0 20 -13.5 33.5t-33 13.5zM792 453
q0 20 -13.5 33.5t-33.5 13.5h-466q-19 0 -33 -13.5t-14 -33.5v-280q0 -19 14 -32.5t33 -13.5h466q20 0 33.5 13.5t13.5 32.5v280zM605.5 173q-57.5 0 -98.5 41t-41 99t41 99t98.5 41t98.5 -41t41 -99t-41 -99t-98.5 -41zM605.5 360q-19.5 0 -33 -13.5t-13.5 -33t13.5 -33
t33 -13.5t33 13.5t13.5 33t-13.5 33t-33 13.5zM232 640q0 19 14 32.5t33 13.5t33 -13.5t14 -32.5t-14 -33t-33 -14t-33 14t-14 33z" />
    <glyph glyph-name="uniE61C" unicode="&#xe61c;" 
d="M840 88h-116q-12 0 -20.5 8.5t-8.5 20.5t8.5 20.5t20.5 8.5h116q12 0 20.5 -8.5t8.5 -20.5t-8.5 -20.5t-20.5 -8.5zM782 -3h-58q-12 0 -20.5 8.5t-8.5 20.5t8.5 20.5t20.5 8.5h58q12 0 20.5 -8.5t8.5 -20.5t-8.5 -20.5t-20.5 -8.5zM898 -90h-232q-37 0 -62.5 25.5
t-25.5 61.5v149q0 36 25.5 61.5t62.5 25.5h232q37 0 62.5 -25.5t25.5 -61.5v-149q0 -36 -25.5 -61.5t-62.5 -25.5zM666 175q-12 0 -21 -8.5t-9 -20.5v-149q0 -12 9 -20.5t21 -8.5h232q12 0 21 8.5t9 20.5v149q0 12 -9 20.5t-21 8.5h-232zM694 354q-23 10 -47 17q27 16 49 38
q76 76 76 184t-76 184t-184 76t-184 -76t-76 -184t76 -184q22 -22 49 -38q-24 -7 -47 -17q-84 -36 -148.5 -100.5t-99.5 -148.5q-37 -86 -37 -181v-16h62q-1 8 -1 16q0 110 54.5 203.5t148 147.5t203.5 54q125 0 229 -71h97q-63 62 -144 96zM313 593q0 82 58.5 140t140.5 58
t140.5 -58t58.5 -140t-58.5 -140.5t-140.5 -58.5t-140.5 58.5t-58.5 140.5z" />
    <glyph glyph-name="uniE61D" unicode="&#xe61d;" 
d="M340 276v274h-101q-5 -1 -11 -3t-17 -12.5t-11 -23.5v-209h39v-222h139v157q-1 0 -3.5 0.5t-9 3t-11.5 6t-9.5 11.5t-4.5 18zM785 550h-101v-274q0 -16 -9.5 -26t-19.5 -12l-9 -1v-157h139v222h39v209q0 13 -9.5 23t-19.5 13zM669 535l-4 4q-38 41 -72 43h-163l-3 -1
q-3 -1 -8.5 -3t-17.5 -9.5t-21.5 -15.5t-17 -21.5t-7.5 -28.5v-242h49v-265h216v265h49v274zM637 292h-49v-264h-152v264h-49v211q0 28 48 47h156q19 -2 46 -28v-230zM330 578q27 0 46 18.5t19 45t-19 45t-46 18.5t-46 -18.5t-19 -45t19 -45t46 -18.5zM646 641.5
q0 26.5 18 45t43.5 18.5t43.5 -18.5t18 -45t-18 -45t-43.5 -18.5t-43.5 18.5t-18 45zM520.5 615q31.5 0 54 23t22.5 55.5t-22.5 55.5t-54 23t-54 -23t-22.5 -55.5t22.5 -55.5t54 -23z" />
    <glyph glyph-name="uniE61E" unicode="&#xe61e;" 
d="M116 762v-307h85v307h117v70h-318v-70h116zM412 770v62h-77v-62h77zM335 728v-273h77v273h-77zM550 728v82h-77v-82h-47v-50h47v-161q0 -21 7 -33.5t19 -19.5t28 -9.5t34 -2.5q12 0 24 0.5t21 2.5v58q-5 -1 -11 -1.5t-12 -0.5q-20 0 -26.5 6.5t-6.5 25.5v135h56v50h-56z
M625 832v-377h77v377h-77zM931 621h-126q1 8 4 18t10 19t19.5 15t30.5 6q29 0 42.5 -15t19.5 -43zM805 573h203q2 32 -5.5 61t-25 51.5t-44 36t-62.5 13.5q-32 0 -58 -11t-45 -30t-29.5 -45.5t-10.5 -57.5q0 -32 10 -58t28.5 -45t45 -29.5t59.5 -10.5q48 0 82 21t50 70h-68
q-4 -12 -20.5 -23.5t-40.5 -11.5q-32 0 -49.5 16.5t-19.5 52.5zM0 320h1024v-64h-1024v64zM0 128h1024v-64h-1024v64zM0 -64h768v-64h-768v64z" />
    <glyph glyph-name="uniE61F" unicode="&#xe61f;" 
d="M870 742h-716q-37 0 -63 -26t-26 -64v-536q0 -38 26 -64t63 -26h716q37 0 63 26t26 64v536q0 38 -26 64t-63 26zM900 315q-32 13 -68 6.5t-62 -32.5l-80 -80l-2 2q-1 2 -2 3l-254 254q-35 35 -84.5 35t-84.5 -35l-139 -139v264q0 37 26.5 63t63.5 26h596q37 0 63.5 -26
t26.5 -63v-278zM706 593q-43 0 -74 -30.5t-31 -74t31 -74t74 -30.5t73.5 30.5t30.5 74t-30.5 74t-73.5 30.5z" />
    <glyph glyph-name="uniE620" unicode="&#xe620;" 
d="M922 282h-128l-128 220q22 11 36.5 35.5t14.5 51.5v205q0 42 -30 72t-73 30h-204q-43 0 -73 -30t-30 -72v-205q0 -53 51 -87l-128 -220h-128q-42 0 -72 -30.5t-30 -72.5v-205q0 -42 30 -72t72 -30h205q42 0 72.5 30t30.5 72v67h204v-67q0 -42 30.5 -72t72.5 -30h205
q42 0 72 30t30 72v205q0 42 -30 72.5t-72 30.5zM410 118v61q0 39 -27 69t-66 34l118 204h149l117 -204q-39 -4 -65.5 -32.5t-26.5 -70.5v-61h-199z" />
    <glyph glyph-name="uniE621" unicode="&#xe621;" horiz-adv-x="1000" 
d="M923 649q-2 10 -2 16q-102 3 -167 28q-17 6 -33.5 17.5t-25.5 19.5l-8 8q0 18 -13 30.5t-31 12.5h-262q-18 0 -31 -12.5t-13 -30.5q-27 -30 -63 -44q-28 -11 -71 -18.5t-72 -8.5l-29 -2q0 -7 -2 -18q-24 -11 -24 -38v-496q0 -17 12.5 -29.5t30.5 -12.5h787q18 0 31 12.5
t13 29.5v496q0 29 -27 40zM512.5 179q-90.5 0 -154.5 62.5t-64 150.5t64 150.5t154.5 62.5t154.5 -62.5t64 -150.5t-64 -150.5t-154.5 -62.5zM512.5 520q-54.5 0 -93 -37.5t-38.5 -90.5t38.5 -90.5t93 -37.5t92.5 37.5t38 90.5t-38 90.5t-92.5 37.5z" />
  </font>
</defs>
</svg>
